<svg viewBox="0 0 62 23" fill="none" xmlns="http://www.w3.org/2000/svg">
  <path
    fillRule="evenodd"
    clipRule="evenodd"
    d="M35.477 13.771c-1.09-.807-1.56-2.266-1.174-4.558.013-.073.044-.201.085-.358a2.07 2.07 0 00-.773-.13c-2.571 0-4.003 4.347-4.003 8.386 0 2.106.82 3.167 2.046 3.167 1.7 0 3.262-2.96 3.82-6.507zm21.197-4.074s-1.229 5.928-1.229 8.12c0 1.524.708 2.046 1.582 2.046 1.105 0 2.12-.7 3.065-2.437.217-.399 1.011-.15 1.427.331.182.21-.027.632-.313 1.116-1.433 2.423-3.456 3.762-5.559 3.762-2.29 0-3.699-1.071-4.051-3.78-1.314 2.073-3.417 3.78-5.827 3.78-2.93 0-4.176-1.627-4.176-4.545 0-1.925.646-5.203.646-5.203-.858.775-1.853 1.336-2.998 1.57-1.126 5.292-4.14 8.178-8.188 8.178-3.43 0-5.785-1.808-5.785-6.144 0-5.352 3.397-10.12 8.727-10.12 3.035 0 5.238 1.633 5.432 5.435 1.248-.211 2.401-1.068 3.405-2.29a166.805 166.805 0 011.492-7.994c.082-.384.222-1.105.904-1.318.764-.24 1.855-.282 3.002-.053.636.127.798.723.798 1.256 0 1.416-.67 4.541-1.833 7.352-.824 3.132-1.39 6.258-1.39 8.73 0 1.786.59 2.374 1.577 2.374 1.612 0 3.485-2.246 4.386-5.29.14-1.463.51-3.818.695-4.695-.998.048-1.637.077-1.637.077-.52.019-1.023-.2-.998-.666a9.295 9.295 0 01.221-1.619c.103-.415.34-.673.842-.682.538-.01 1.313-.003 2.11.016.27-1.544.495-2.75.712-3.751.087-.401.461-.632.846-.675.46-.052 1.833-.042 2.43.103.603.147.855.62.75 1.1-.213.977-.648 3.373-.648 3.373 2.15.096 4.018.194 4.018.194.644.03.975.393.872.962-.173.955-.882 1.262-1.883 1.285-1.142.026-2.343.063-3.424.102zm-30.9-7.643c0 6.672-3.566 20.538-9.093 20.538-4.17 0-5.007-4.678-5.222-10.638-2.09 4.574-3.196 6.949-4.577 9.327-.652 1.122-1.436 1.354-2.292 1.354-.754 0-2.699-.253-3.152-.535-.453-.282-.702-.536-.924-1.614-1.027-4.984-.363-11.43.658-16.57.178-.898.408-1.332 1.026-1.738.66-.434 2.121-.464 3.073-.481.506-.009.8.356.672.974-.92 4.487-1.998 10.635-1.158 16.973 0 0 3.181-6.323 6.478-14.195.662-1.58.81-2.1 1.44-2.24.823-.183 1.417-.183 2.247-.082.548.067.823.21.802.97-.058 2.052-.195 4.373-.195 6.783 0 4.079.436 8.663 2.002 8.663 2.103 0 3.95-9.809 3.297-18.237-.045-.582.165-1.174.785-1.238.31-.032.94-.068 1.648-.068 1.615 0 2.486.289 2.486 2.054z"
    fill="#ffffff"
  />
</svg>

